<svg width="129" height="32" viewBox="0 0 129 32" fill="none" xmlns="http://www.w3.org/2000/svg">
<g clip-path="url(#clip0_3_2078)">
<path fill-rule="evenodd" clip-rule="evenodd" d="M5.81124 0.000382278C3.85069 0.141566 2.08838 1.17696 1.00627 2.82337C0.4681 3.6422 0.136391 4.56684 0.0196571 5.5736C0.00345069 5.71337 0 26.2999 0 26.2999L0.0327816 26.5373C0.287145 28.3796 1.25996 29.9459 2.78229 30.9642C3.61399 31.5206 4.51237 31.845 5.59631 31.9804C5.78093 32.0035 26.1192 32.0151 26.5356 31.962C28.7379 31.6812 30.6334 30.2496 31.5068 28.2076C31.7789 27.5715 31.9385 26.9132 31.9926 26.204C32.0044 26.0498 31.9969 5.7152 31.9735 5.53674C31.8763 4.79313 31.6906 4.15529 31.3894 3.53041C30.6298 1.95439 29.2279 0.755671 27.5548 0.251383C27.2097 0.147376 26.8354 0.0706496 26.4184 0.018432C26.2334 -0.00473477 5.89986 -0.00600298 5.81124 0.000382278ZM13.3825 5.31673C13.1921 5.37998 13.0728 5.39664 12.8098 5.39673C12.6584 5.39679 12.5074 5.40576 12.4166 5.42011C12.3355 5.43291 12.1994 5.44321 12.1143 5.44301C11.9582 5.44262 11.6795 5.47799 11.4215 5.5309C11.1949 5.57739 10.8004 5.71625 10.5957 5.82157C10.4941 5.87381 10.3712 5.93713 10.3226 5.96228C10.2442 6.00276 10.2198 6.00801 10.1088 6.00821C10.0398 6.00835 9.87255 5.99743 9.73705 5.98398C9.51764 5.96219 9.48539 5.95546 9.44212 5.92255C9.36378 5.86296 9.24564 5.80955 9.19233 5.80961C9.09551 5.80971 9.05566 5.85155 8.95767 6.05602C8.83328 6.31559 8.76477 6.39774 8.5235 6.57666C8.13582 6.86419 7.96664 7.17341 7.94682 7.63074C7.93719 7.85323 7.93464 7.86489 7.88554 7.91162C7.8221 7.97204 7.21506 8.42616 7.14553 8.46524C7.10804 8.4863 7.05494 8.53879 7.01281 8.59642C6.97419 8.64926 6.88118 8.76549 6.80613 8.85471C6.58609 9.11631 6.54152 9.18891 6.43774 9.45498C6.40386 9.54182 6.31332 9.73427 6.23653 9.88263C5.96793 10.4017 5.96287 10.4132 5.96287 10.503C5.96287 10.5601 5.97675 10.6193 6.009 10.6998C6.12122 10.9801 6.1491 11.2091 6.10632 11.4988C6.06186 11.7999 6.02081 11.9272 5.86893 12.2353C5.79199 12.3913 5.72908 12.524 5.72914 12.5302C5.72919 12.5363 5.75213 12.5569 5.78011 12.576C5.89057 12.6512 5.95023 12.7672 5.95023 12.9069C5.95023 13.0161 5.98138 13.1335 6.03516 13.2271C6.05614 13.2636 6.24636 13.4695 6.45785 13.6847C6.76573 13.998 6.85241 14.095 6.89265 14.1713C6.98789 14.3521 7.08484 14.5042 7.1405 14.5603C7.21619 14.6366 7.55625 14.8917 7.76699 15.0303C7.95827 15.1561 8.26342 15.3341 8.46133 15.4354C8.62394 15.5186 8.71999 15.5248 8.87062 15.4619C9.16796 15.3376 9.20352 15.3329 9.8212 15.3374C10.4012 15.3417 10.3686 15.3467 10.831 15.1807C11.1509 15.0658 11.3182 15.0207 11.5384 14.99C11.9215 14.9366 11.9876 14.966 12.1655 15.2695C12.2477 15.4098 12.2932 15.4609 12.3721 15.5014C12.4257 15.529 12.4442 15.5305 12.5859 15.519C12.6712 15.5121 12.8273 15.5062 12.9327 15.5059C13.1023 15.5055 13.1329 15.5093 13.1982 15.5394C13.2873 15.5805 13.3451 15.6331 13.3874 15.7119C13.4508 15.8301 13.4182 16.1153 13.2835 16.6188C13.1994 16.9331 13.2129 17.0959 13.3389 17.2861C13.3633 17.3229 13.4996 17.4781 13.6417 17.6311C13.7839 17.784 13.933 17.9522 13.973 18.0049C14.1207 18.1994 14.3268 18.7657 14.3915 19.1552C14.4124 19.2809 14.4295 19.3986 14.4295 19.4167C14.4295 19.4348 14.4527 19.5191 14.4811 19.6039C14.5608 19.8421 14.5471 19.9663 14.4216 20.1433C14.1445 20.534 14.0149 20.9674 13.9916 21.581C13.979 21.9142 13.9971 21.9699 14.2639 22.4165C14.5247 22.8531 14.65 23.1234 14.7093 23.3768C14.7249 23.4435 14.7615 23.6639 14.7907 23.8667C14.8516 24.2892 14.9277 24.6511 14.9794 24.7629C14.9989 24.8053 15.0592 24.8946 15.1134 24.9613C15.264 25.1472 15.407 25.3764 15.5344 25.6363C15.7499 26.0759 15.7981 26.2375 15.781 26.4611C15.7577 26.7637 15.8733 26.9924 16.1032 27.0988C16.2425 27.1632 16.3802 27.1573 16.76 27.0707C17.1197 26.9886 17.3503 26.9562 17.5749 26.9559C17.7533 26.9558 18.0584 26.9146 18.231 26.8673C18.4028 26.8203 18.5229 26.7508 18.6844 26.6051C18.9948 26.3249 19.3158 25.9401 19.7016 25.3856C20.0124 24.9389 20.0614 24.8178 20.0756 24.4613C20.0835 24.2617 20.0889 24.2245 20.1147 24.1885C20.1521 24.1363 20.3983 24.0112 20.4897 23.9979C20.5919 23.983 20.6612 23.9412 20.7035 23.8691C20.7906 23.7206 20.8358 23.3758 20.8017 23.1206C20.7924 23.051 20.765 22.9129 20.7408 22.8138C20.6504 22.4434 20.6959 22.3132 20.9726 22.1511C21.0539 22.1035 21.0849 22.0739 21.1367 21.9948C21.2325 21.8482 21.3684 21.7555 21.5943 21.6822C21.9019 21.5825 22.1554 21.334 22.2617 21.028C22.2993 20.9198 22.3043 20.7525 22.2825 20.3373C22.2728 20.1526 22.2753 20.0768 22.2967 19.9244C22.3292 19.6911 22.3207 19.653 22.2024 19.5056C22.0476 19.3129 21.9927 19.1686 21.9672 18.8878C21.9556 18.7603 21.9424 18.7052 21.8963 18.5929C21.8504 18.481 21.8397 18.4365 21.8398 18.3589C21.84 18.2646 21.8427 18.2582 21.9996 17.9754C22.2037 17.6077 22.2803 17.4933 22.4739 17.2673C22.9108 16.7571 23.2895 16.3996 23.7935 16.0216C24.1057 15.7876 24.309 15.5751 24.4662 15.3187C24.9447 14.538 25.2428 13.9444 25.2833 13.6916C25.3102 13.5233 25.2785 13.3374 25.2142 13.2868C25.157 13.2418 25.0955 13.2493 24.9147 13.3234C24.7855 13.3763 24.6833 13.4038 24.4237 13.4552C23.7454 13.5897 23.4211 13.6434 23.3387 13.6351C23.1895 13.6199 23.1107 13.5324 23.0677 13.3337C23.0525 13.2637 23.0298 13.1847 23.0172 13.1582C22.989 13.0989 22.6001 12.7176 22.2797 12.4351C22.0067 12.1945 21.9402 12.1081 21.8828 11.9197C21.8071 11.6716 21.7355 11.5488 21.5661 11.3764C21.4073 11.2147 21.3761 11.1436 21.3605 10.9075C21.3374 10.5584 21.2537 10.3599 21.026 10.1143C20.9371 10.0185 20.9162 9.98502 20.8761 9.87415C20.8505 9.80331 20.8295 9.73928 20.8295 9.73188C20.8295 9.68838 20.7728 9.56663 20.702 9.45802C20.5777 9.26721 20.3429 8.74902 20.3429 8.66536C20.3429 8.65367 20.3788 8.62971 20.4237 8.61149L20.5046 8.57868L20.5663 8.39227C20.6214 8.22608 20.6281 8.19067 20.6281 8.06577C20.6282 7.91698 20.6256 7.90387 20.5327 7.59274L20.4729 7.39253L20.2199 7.37513C20.0444 7.36307 19.9216 7.34615 19.8194 7.31993C19.7078 7.29134 19.6342 7.28203 19.5171 7.28175C19.3522 7.28136 19.2631 7.30126 19.0752 7.38047C18.9202 7.44579 18.8443 7.43494 18.0516 7.23418L17.375 7.06283L17.282 6.97587C17.1533 6.85542 17.0608 6.8212 16.8922 6.83169C16.7276 6.84192 16.4989 6.91395 16.425 6.97882C16.3519 7.04305 16.3321 7.09915 16.3169 7.28568C16.3029 7.45827 16.2679 7.56495 16.2162 7.59261C16.1997 7.60143 16.1624 7.60863 16.1332 7.60863C16.0442 7.60863 15.3045 7.31903 15.2186 7.25057C15.1874 7.22561 15.1608 7.18519 15.1456 7.13955C15.0947 6.98632 14.9439 6.91427 14.5492 6.85475C14.2228 6.80551 13.9904 6.72662 13.7672 6.58927L13.6454 6.5143L13.6805 6.47528C13.6999 6.45382 13.7577 6.39038 13.8089 6.3343C13.9649 6.16374 13.9817 6.0745 13.8905 5.9005C13.8205 5.76696 13.8237 5.69641 13.9042 5.59305C13.9955 5.47582 13.9708 5.42988 13.8085 5.41517C13.7386 5.40882 13.718 5.40067 13.6991 5.37181C13.6668 5.32247 13.5901 5.27867 13.5373 5.27938C13.513 5.27972 13.4433 5.29651 13.3825 5.31673ZM24.5972 20.1703C24.5279 20.2126 24.4692 20.2881 24.3701 20.4628C24.3196 20.5518 24.2488 20.6562 24.2129 20.6948C24.1769 20.7334 24.1473 20.7761 24.1471 20.7896C24.1461 20.871 24.0185 21.044 23.9189 21.099C23.8946 21.1125 23.7486 21.1767 23.5945 21.2416L23.3143 21.3598L23.2452 21.4974C23.2071 21.5731 23.1656 21.6806 23.153 21.7362C23.1232 21.8672 23.1236 22.0654 23.1541 22.2188C23.1844 22.3714 23.1711 22.4488 23.0804 22.6483C22.962 22.9087 22.9297 23.0632 22.9538 23.2538C22.973 23.4056 22.9999 23.4937 23.0979 23.7257C23.1617 23.8768 23.1973 23.9406 23.2479 23.9946C23.3235 24.0753 23.4723 24.169 23.5249 24.169C23.5443 24.169 23.6121 24.1462 23.6756 24.1183C23.739 24.0904 23.8327 24.06 23.8838 24.0507C23.9961 24.0303 24.0424 24.0077 24.1104 23.9397C24.2074 23.8427 24.266 23.6877 24.3751 23.24C24.4116 23.0899 24.4919 22.8046 24.5535 22.6059C24.6892 22.1681 24.7555 21.9141 24.79 21.6989C24.8115 21.5653 24.8289 21.5107 24.8883 21.3893L24.9606 21.2418L24.9547 20.9026C24.9496 20.6035 24.9451 20.5519 24.9167 20.4654C24.8624 20.3 24.738 20.143 24.6613 20.1432C24.6504 20.1433 24.6216 20.1554 24.5972 20.1703Z" fill="url(#paint0_linear_3_2078)"/>
<path fill-rule="evenodd" clip-rule="evenodd" d="M48.5072 2.62141C48.1175 2.70801 47.7649 2.93792 47.5169 3.26715C47.3756 3.45467 47.3266 3.54656 47.0478 4.14798C46.6045 5.10424 39.8687 19.6686 39.8169 19.9657C39.7206 20.5175 39.8937 21.0154 40.3273 21.4342C40.8881 21.9759 41.74 22.1239 42.4027 21.7948C42.7837 21.6056 43.0627 21.2955 43.2727 20.8276C43.5678 20.1701 48.8848 8.6444 48.8848 8.6444L48.9223 8.7186C48.9841 8.84058 57.3443 26.8959 57.4042 27.0192C57.7781 27.7896 58.3749 28.2004 59.1203 28.2004C59.9269 28.2004 60.622 27.6739 60.8217 26.9118C60.9052 26.5929 60.8966 26.1762 60.7995 25.8412C60.748 25.6634 50.6127 3.81804 50.5672 3.7232C50.2929 3.15096 49.8806 2.79097 49.329 2.64221C49.1494 2.59374 48.6846 2.58198 48.5072 2.62141ZM72.7913 2.61077C72.1063 2.6498 71.4266 2.75715 70.7166 2.93852C68.7169 3.44933 67.1342 4.46435 65.9842 5.97348C65.2177 6.97933 64.7619 8.03167 64.5537 9.27562C64.4292 10.0201 64.3937 11.0875 64.4818 11.4378C64.625 12.0071 65.0862 12.4866 65.6666 12.6696C66.373 12.8925 67.209 12.6194 67.6485 12.0224C67.9053 11.6736 67.9728 11.4211 68.0004 10.7068C68.0184 10.2387 68.0523 9.97339 68.1413 9.60324C68.3205 8.85817 68.634 8.26628 69.1119 7.77088C69.354 7.51985 69.5009 7.39813 69.7941 7.20539C70.3324 6.85152 70.7883 6.62875 71.3632 6.43863C72.0177 6.22217 72.633 6.13064 73.2945 6.15133C74.1299 6.17746 74.9457 6.3756 75.8059 6.76127C76.9459 7.27245 77.7226 8.08133 78.0878 9.13767C78.4279 10.1215 78.4879 11.2305 78.2584 12.2896C78.0967 13.0356 77.8858 13.4938 77.5001 13.9372C77.2128 14.2676 76.7168 14.6129 76.0362 14.9563C75.2547 15.3505 74.7225 15.5476 73.3376 15.9553C70.8237 16.6953 69.4797 17.2561 68.2853 18.0632C67.7603 18.4179 67.3772 18.7382 66.921 19.2035C66.0343 20.108 64.9733 22.4152 64.9733 22.4152C64.6989 23.2302 64.5365 24.1175 64.4669 25.1828C64.3901 26.3578 64.4021 26.6843 64.5355 27.0499C64.7461 27.6269 65.2153 28.0277 65.8453 28.1685L66.0264 28.209H73.6308L73.771 28.1715C74.1174 28.079 74.3864 27.9196 74.6324 27.661C75.0718 27.1993 75.2236 26.5691 75.0445 25.951C74.872 25.3557 74.396 24.8965 73.7803 24.7313C73.5814 24.678 68.1021 24.6655 68.1021 24.6655L68.1136 24.5836C68.2539 23.5833 68.6357 22.6803 69.2205 21.9661C69.7125 21.3652 70.3855 20.8673 71.2263 20.482C72.05 20.1046 72.9579 19.7823 74.4757 19.3286C75.9479 18.8885 76.7934 18.5744 77.6555 18.1472C78.1241 17.915 78.4147 17.7489 78.7866 17.5008C80.3878 16.4325 81.3697 14.9503 81.7594 13.0135C82.0518 11.5603 81.9986 9.75207 81.6246 8.42974C81.0585 6.42813 79.7997 4.90368 77.788 3.78357C76.6166 3.13129 75.3323 2.73472 74.0503 2.62934C73.7364 2.60355 73.0864 2.59396 72.7913 2.61077ZM94.4264 2.60401C92.2191 2.71467 90.3562 3.31469 88.9516 4.3674C88.364 4.8078 87.8192 5.36005 87.4149 5.92505C86.778 6.81516 86.4048 7.80288 86.2697 8.95661C86.231 9.28664 86.2177 9.98614 86.243 10.3624C86.2959 11.1506 86.4127 11.7471 86.6254 12.3151C87.2411 13.9598 88.6035 15.2401 90.6735 16.1194C91.5966 16.5116 92.4185 16.7706 94.4264 17.3025C96.8555 17.9458 97.8949 18.3008 98.7287 18.7716C99.0423 18.9487 99.2364 19.089 99.4454 19.2895C99.7826 19.6132 99.9887 19.9738 100.093 20.4236C100.137 20.6115 100.155 21.0993 100.127 21.353C100.017 22.3624 99.5498 23.1157 98.6773 23.6909C98.0035 24.1352 97.0393 24.4443 95.8995 24.5815C95.6325 24.6136 95.4881 24.6199 94.9955 24.621C94.6233 24.6219 94.3273 24.614 94.185 24.5995C92.6151 24.4395 91.3206 24.0071 90.3146 23.3067C90.0395 23.1151 89.8179 22.9279 89.512 22.6287C89.1886 22.3122 89.0782 22.2268 88.8942 22.1504C88.4001 21.9453 87.6614 22.0421 87.1298 22.3817C87.0071 22.4601 86.8073 22.6521 86.7174 22.7781C86.3848 23.2441 86.3085 23.9351 86.5298 24.4758C86.6397 24.7442 86.7998 24.9604 87.1177 25.2694C88.0883 26.2128 89.128 26.8716 90.4441 27.3773C91.9751 27.9655 93.4917 28.2252 95.2192 28.195C96.9442 28.1649 98.3202 27.8506 99.7202 27.1669C100.886 26.5976 101.709 25.9447 102.374 25.0621C103.079 24.1259 103.496 23.0881 103.664 21.8548C103.716 21.4701 103.72 20.5883 103.672 20.1994C103.576 19.4255 103.418 18.869 103.126 18.2767C102.69 17.39 102.015 16.6501 101.047 15.9978C100.274 15.4763 99.46 15.103 98.1346 14.6612C97.4627 14.4372 96.9228 14.2829 95.8806 14.0168C94.7874 13.7377 94.3797 13.6259 93.8006 13.4468C91.9938 12.8879 90.9583 12.3641 90.4041 11.7288C89.8797 11.1276 89.6968 10.3895 89.824 9.3877C89.8913 8.85751 90.0553 8.40523 90.3346 7.97935C90.5105 7.71123 90.866 7.35936 91.1568 7.16556C91.8903 6.6768 93.0295 6.30927 94.185 6.18868C94.3273 6.17384 94.6726 6.15506 94.9524 6.14695C95.411 6.13366 95.4771 6.12799 95.6249 6.08924C95.8252 6.03668 95.9474 5.9835 96.1114 5.87749C96.4449 5.662 96.7475 5.23194 96.8569 4.81817C96.897 4.6663 96.9112 4.31845 96.8842 4.15086C96.8059 3.66558 96.4962 3.16776 96.1093 2.90533C95.9151 2.77362 95.7038 2.68721 95.4519 2.63654C95.3243 2.61088 94.6907 2.59077 94.4264 2.60401ZM126.137 2.60538C125.733 2.65587 125.389 2.83108 125.101 3.13296C124.891 3.3539 124.801 3.51339 124.601 4.02262C124.128 5.22567 117.428 21.662 117.428 21.662C117.428 21.662 112.813 10.2749 112.77 10.1895C112.475 9.59702 111.984 9.25489 111.359 9.20649C110.792 9.1625 110.145 9.43493 109.801 9.86207C109.526 10.2044 109.406 10.5786 109.425 11.0345C109.442 11.4368 115.771 27.0393 115.839 27.1744C115.943 27.3828 116.052 27.5378 116.205 27.6922C116.905 28.4007 118.014 28.3846 118.713 27.6557C118.864 27.4991 119.015 27.2818 119.092 27.1097C119.151 26.9811 128.085 4.89111 128.133 4.71888C128.164 4.60752 128.195 4.545 128.196 4.30047C128.218 4.30047 128.172 3.9991 128.172 3.9991L128.11 3.82215C128.028 3.59021 127.911 3.39823 127.741 3.21747C127.425 2.88132 127.029 2.67382 126.587 2.61224C126.46 2.59465 126.249 2.59143 126.137 2.60538Z" fill="url(#paint1_linear_3_2078)"/>
<path d="M101.719 8.72203C102.711 8.72203 103.516 7.91746 103.516 6.92498C103.516 5.9325 102.711 5.12793 101.719 5.12793C100.726 5.12793 99.9219 5.9325 99.9219 6.92498C99.9219 7.91746 100.726 8.72203 101.719 8.72203Z" fill="url(#paint2_linear_3_2078)"/>
<path d="M80.2131 28.224C81.2056 28.224 82.0101 27.4194 82.0101 26.4269C82.0101 25.4344 81.2056 24.6299 80.2131 24.6299C79.2206 24.6299 78.416 25.4344 78.416 26.4269C78.416 27.4194 79.2206 28.224 80.2131 28.224Z" fill="url(#paint3_linear_3_2078)"/>
<path d="M108.543 6.17711C109.536 6.17711 110.34 5.37254 110.34 4.38006C110.34 3.38757 109.536 2.58301 108.543 2.58301C107.551 2.58301 106.746 3.38757 106.746 4.38006C106.746 5.37254 107.551 6.17711 108.543 6.17711Z" fill="url(#paint4_linear_3_2078)"/>
<path d="M38.7306 28.1703C39.7231 28.1703 40.5277 27.3657 40.5277 26.3732C40.5277 25.3807 39.7231 24.5762 38.7306 24.5762C37.7382 24.5762 36.9336 25.3807 36.9336 26.3732C36.9336 27.3657 37.7382 28.1703 38.7306 28.1703Z" fill="url(#paint5_linear_3_2078)"/>
</g>
<defs>
<linearGradient id="paint0_linear_3_2078" x1="0.110304" y1="90.8903" x2="112.11" y2="90.8903" gradientUnits="userSpaceOnUse">
<stop stop-color="#2D388A"/>
<stop offset="1" stop-color="#00AEEF"/>
</linearGradient>
<linearGradient id="paint1_linear_3_2078" x1="-6.15175" y1="108.88" x2="124.813" y2="108.88" gradientUnits="userSpaceOnUse">
<stop stop-color="#2D388A"/>
<stop offset="1" stop-color="#00AEEF"/>
</linearGradient>
<linearGradient id="paint2_linear_3_2078" x1="-6.15235" y1="108.88" x2="124.812" y2="108.88" gradientUnits="userSpaceOnUse">
<stop stop-color="#2D388A"/>
<stop offset="1" stop-color="#00AEEF"/>
</linearGradient>
<linearGradient id="paint3_linear_3_2078" x1="-6.15171" y1="108.88" x2="124.813" y2="108.88" gradientUnits="userSpaceOnUse">
<stop stop-color="#2D388A"/>
<stop offset="1" stop-color="#00AEEF"/>
</linearGradient>
<linearGradient id="paint4_linear_3_2078" x1="-6.15195" y1="108.88" x2="124.813" y2="108.88" gradientUnits="userSpaceOnUse">
<stop stop-color="#2D388A"/>
<stop offset="1" stop-color="#00AEEF"/>
</linearGradient>
<linearGradient id="paint5_linear_3_2078" x1="-6.15212" y1="108.88" x2="124.812" y2="108.88" gradientUnits="userSpaceOnUse">
<stop stop-color="#2D388A"/>
<stop offset="1" stop-color="#00AEEF"/>
</linearGradient>
<clipPath id="clip0_3_2078">
<rect width="128.295" height="32" fill="white"/>
</clipPath>
</defs>
</svg>
